# MagicaVoxel @ Ephtracy

# group
g tutorial1

# material
mtllib tutorial1.mtl
usemtl palette

# normals
vn -1 0 0
vn 1 0 0
vn 0 0 1
vn 0 0 -1
vn 0 -1 0
vn 0 1 0

# texcoords
vt 0.0644531 0.5
vt 0.474609 0.5
vt 0.759766 0.5
vt 0.845703 0.5
vt 0.853516 0.5
vt 0.943359 0.5

# verts
v -40 0 63
v -40 0 -63
v -40 3 63
v -40 3 -63
v -22 2 -58
v -22 2 -62
v -22 3 -62
v -22 3 -63
v -22 52 -58
v -22 52 -63
v 9 2 -58
v 9 2 -62
v 9 3 -62
v 9 49 -58
v 9 49 -62
v 39 2 62
v 39 2 -62
v 39 3 62
v 39 3 -62
v -39 2 62
v -39 2 -62
v -39 3 62
v -39 3 -62
v -19 2 -58
v -19 2 -62
v -19 3 -62
v -19 49 -58
v -19 49 -62
v 12 2 -58
v 12 2 -62
v 12 3 -62
v 12 3 -63
v 12 52 -58
v 12 52 -63
v 40 0 63
v 40 0 -63
v 40 3 63
v 40 3 -63
v -40 0 63
v -40 3 63
v 40 0 63
v 40 3 63
v -22 2 -58
v -22 52 -58
v -19 2 -58
v -19 49 -58
v 9 2 -58
v 9 49 -58
v 12 2 -58
v 12 52 -58
v -39 2 -62
v -39 3 -62
v -22 2 -62
v -22 3 -62
v -19 2 -62
v -19 3 -62
v -19 49 -62
v 9 2 -62
v 9 3 -62
v 9 49 -62
v 12 2 -62
v 12 3 -62
v 39 2 -62
v 39 3 -62
v -39 2 62
v -39 3 62
v 39 2 62
v 39 3 62
v -40 0 -63
v -40 3 -63
v -22 3 -63
v -22 52 -63
v -19 3 -63
v -19 49 -63
v 9 3 -63
v 9 49 -63
v 12 3 -63
v 12 52 -63
v 40 0 -63
v 40 3 -63
v -40 0 63
v 40 0 63
v -40 0 -63
v 40 0 -63
v -19 49 -58
v 9 49 -58
v -19 49 -62
v 9 49 -62
v -39 2 62
v 39 2 62
v -7 2 60
v 0 2 60
v -9 2 59
v -7 2 59
v 0 2 59
v 2 2 59
v -10 2 58
v -9 2 58
v 2 2 58
v 3 2 58
v -11 2 57
v -10 2 57
v 3 2 57
v 4 2 57
v -12 2 56
v -11 2 56
v 4 2 56
v 5 2 56
v -13 2 55
v -12 2 55
v 5 2 55
v 6 2 55
v -14 2 53
v -13 2 53
v 6 2 53
v 7 2 53
v -4 2 50
v -3 2 50
v -4 2 49
v -3 2 49
v -14 2 46
v -13 2 46
v 6 2 46
v 7 2 46
v -13 2 44
v -12 2 44
v 5 2 44
v 6 2 44
v -12 2 43
v -11 2 43
v 4 2 43
v 5 2 43
v -11 2 42
v -10 2 42
v 3 2 42
v 4 2 42
v -10 2 41
v -9 2 41
v 2 2 41
v 3 2 41
v -9 2 40
v -7 2 40
v 0 2 40
v 2 2 40
v -7 2 39
v 0 2 39
v -10 2 34
v 1 2 34
v 10 2 33
v 29 2 33
v 1 2 29
v 4 2 29
v 1 2 28
v 3 2 28
v 4 2 28
v 7 2 28
v 3 2 27
v 5 2 27
v 7 2 27
v 10 2 27
v 5 2 26
v 10 2 26
v -10 2 23
v 1 2 23
v 10 2 14
v 29 2 14
v -24 2 -7
v -17 2 -7
v -26 2 -8
v -24 2 -8
v -17 2 -8
v -15 2 -8
v -27 2 -9
v -26 2 -9
v -15 2 -9
v -14 2 -9
v -28 2 -10
v -27 2 -10
v -14 2 -10
v -13 2 -10
v -29 2 -11
v -28 2 -11
v -13 2 -11
v -12 2 -11
v -30 2 -13
v -29 2 -13
v -12 2 -13
v -11 2 -13
v 12 2 -13
v 17 2 -13
v 10 2 -14
v 12 2 -14
v 17 2 -14
v 19 2 -14
v 8 2 -15
v 10 2 -15
v 19 2 -15
v 21 2 -15
v 7 2 -17
v 8 2 -17
v 13 2 -17
v 17 2 -17
v 21 2 -17
v 22 2 -17
v 14 2 -18
v 16 2 -18
v 6 2 -19
v 7 2 -19
v 22 2 -19
v 23 2 -19
v -30 2 -20
v -29 2 -20
v -12 2 -20
v -11 2 -20
v 15 2 -20
v 16 2 -20
v 15 2 -21
v 16 2 -21
v -29 2 -22
v -28 2 -22
v -13 2 -22
v -12 2 -22
v 15 2 -22
v 16 2 -22
v -28 2 -23
v -27 2 -23
v -14 2 -23
v -13 2 -23
v 11 2 -23
v 13 2 -23
v 17 2 -23
v 18 2 -23
v -27 2 -24
v -26 2 -24
v -15 2 -24
v -14 2 -24
v 6 2 -24
v 7 2 -24
v 12 2 -24
v 14 2 -24
v 15 2 -24
v 17 2 -24
v 22 2 -24
v 23 2 -24
v -26 2 -25
v -24 2 -25
v -17 2 -25
v -15 2 -25
v -24 2 -26
v -17 2 -26
v 7 2 -26
v 8 2 -26
v 12 2 -26
v 17 2 -26
v 21 2 -26
v 22 2 -26
v 11 2 -27
v 12 2 -27
v 16 2 -27
v 18 2 -27
v 8 2 -28
v 10 2 -28
v 12 2 -28
v 16 2 -28
v 19 2 -28
v 21 2 -28
v 10 2 -29
v 12 2 -29
v 17 2 -29
v 19 2 -29
v 12 2 -30
v 17 2 -30
v -22 2 -58
v -19 2 -58
v 9 2 -58
v 12 2 -58
v -39 2 -62
v -22 2 -62
v -19 2 -62
v 9 2 -62
v 12 2 -62
v 39 2 -62
v -40 3 63
v 40 3 63
v -39 3 62
v 39 3 62
v -39 3 -62
v -22 3 -62
v 12 3 -62
v 39 3 -62
v -40 3 -63
v -22 3 -63
v 12 3 -63
v 40 3 -63
v -22 52 -58
v 12 52 -58
v -22 52 -63
v 12 52 -63

# faces
f 3/6/1 2/6/1 1/6/1
f 4/6/1 2/6/1 3/6/1
f 7/1/1 6/1/1 5/1/1
f 9/1/1 7/1/1 5/1/1
f 9/1/1 8/1/1 7/1/1
f 10/1/1 8/1/1 9/1/1
f 13/1/1 12/1/1 11/1/1
f 14/1/1 13/1/1 11/1/1
f 15/1/1 13/1/1 14/1/1
f 18/6/1 17/6/1 16/6/1
f 19/6/1 17/6/1 18/6/1
f 20/6/2 21/6/2 22/6/2
f 22/6/2 21/6/2 23/6/2
f 24/1/2 25/1/2 26/1/2
f 24/1/2 26/1/2 27/1/2
f 27/1/2 26/1/2 28/1/2
f 29/1/2 30/1/2 31/1/2
f 29/1/2 31/1/2 33/1/2
f 31/1/2 32/1/2 33/1/2
f 33/1/2 32/1/2 34/1/2
f 35/6/2 36/6/2 37/6/2
f 37/6/2 36/6/2 38/6/2
f 41/6/3 40/6/3 39/6/3
f 42/6/3 40/6/3 41/6/3
f 45/1/3 44/1/3 43/1/3
f 46/1/3 44/1/3 45/1/3
f 48/1/3 44/1/3 46/1/3
f 49/1/3 48/1/3 47/1/3
f 50/1/3 44/1/3 48/1/3
f 50/1/3 48/1/3 49/1/3
f 53/6/3 52/6/3 51/6/3
f 54/6/3 52/6/3 53/6/3
f 58/6/3 56/6/3 55/6/3
f 59/3/3 57/3/3 56/3/3
f 59/6/3 56/6/3 58/6/3
f 60/3/3 57/3/3 59/3/3
f 63/6/3 62/6/3 61/6/3
f 64/6/3 62/6/3 63/6/3
f 65/6/4 66/6/4 67/6/4
f 67/6/4 66/6/4 68/6/4
f 69/6/4 70/6/4 71/6/4
f 69/6/4 71/6/4 73/6/4
f 71/1/4 72/1/4 73/1/4
f 73/1/4 72/1/4 74/1/4
f 69/6/4 73/6/4 75/6/4
f 73/3/4 74/3/4 75/3/4
f 74/1/4 72/1/4 76/1/4
f 75/3/4 74/3/4 76/3/4
f 69/6/4 75/6/4 77/6/4
f 75/1/4 76/1/4 77/1/4
f 76/1/4 72/1/4 78/1/4
f 77/1/4 76/1/4 78/1/4
f 69/6/4 77/6/4 79/6/4
f 79/6/4 77/6/4 80/6/4
f 83/6/5 82/6/5 81/6/5
f 84/6/5 82/6/5 83/6/5
f 87/1/5 86/1/5 85/1/5
f 88/1/5 86/1/5 87/1/5
f 89/6/6 90/6/6 91/6/6
f 91/6/6 90/6/6 92/6/6
f 89/6/6 91/6/6 93/6/6
f 91/5/6 92/5/6 94/5/6
f 93/6/6 91/6/6 94/6/6
f 92/6/6 90/6/6 95/6/6
f 94/5/6 92/5/6 95/5/6
f 95/6/6 90/6/6 96/6/6
f 89/6/6 93/6/6 97/6/6
f 93/5/6 94/5/6 98/5/6
f 97/6/6 93/6/6 98/6/6
f 94/5/6 95/5/6 98/5/6
f 95/5/6 96/5/6 98/5/6
f 96/6/6 90/6/6 99/6/6
f 98/5/6 96/5/6 99/5/6
f 99/6/6 90/6/6 100/6/6
f 89/6/6 97/6/6 101/6/6
f 97/5/6 98/5/6 102/5/6
f 101/6/6 97/6/6 102/6/6
f 98/5/6 99/5/6 102/5/6
f 99/5/6 100/5/6 102/5/6
f 100/6/6 90/6/6 103/6/6
f 102/5/6 100/5/6 103/5/6
f 103/6/6 90/6/6 104/6/6
f 89/6/6 101/6/6 105/6/6
f 101/5/6 102/5/6 106/5/6
f 105/6/6 101/6/6 106/6/6
f 102/5/6 103/5/6 106/5/6
f 103/5/6 104/5/6 106/5/6
f 104/6/6 90/6/6 107/6/6
f 106/5/6 104/5/6 107/5/6
f 107/6/6 90/6/6 108/6/6
f 89/6/6 105/6/6 109/6/6
f 105/5/6 106/5/6 110/5/6
f 109/6/6 105/6/6 110/6/6
f 106/5/6 107/5/6 110/5/6
f 107/5/6 108/5/6 110/5/6
f 108/6/6 90/6/6 111/6/6
f 110/5/6 108/5/6 111/5/6
f 111/6/6 90/6/6 112/6/6
f 89/6/6 109/6/6 113/6/6
f 109/5/6 110/5/6 114/5/6
f 113/6/6 109/6/6 114/6/6
f 110/5/6 111/5/6 114/5/6
f 111/5/6 112/5/6 114/5/6
f 112/6/6 90/6/6 115/6/6
f 114/5/6 112/5/6 115/5/6
f 115/6/6 90/6/6 116/6/6
f 113/5/6 114/5/6 117/5/6
f 114/5/6 115/5/6 117/5/6
f 115/5/6 116/5/6 117/5/6
f 117/5/6 116/5/6 118/5/6
f 113/5/6 117/5/6 119/5/6
f 117/6/6 118/6/6 119/6/6
f 118/5/6 116/5/6 120/5/6
f 119/6/6 118/6/6 120/6/6
f 89/6/6 113/6/6 121/6/6
f 113/5/6 119/5/6 121/5/6
f 119/5/6 120/5/6 121/5/6
f 121/5/6 120/5/6 122/5/6
f 120/5/6 116/5/6 123/5/6
f 122/5/6 120/5/6 123/5/6
f 116/6/6 90/6/6 124/6/6
f 123/5/6 116/5/6 124/5/6
f 121/6/6 122/6/6 125/6/6
f 122/5/6 123/5/6 125/5/6
f 125/5/6 123/5/6 126/5/6
f 126/5/6 123/5/6 127/5/6
f 123/6/6 124/6/6 128/6/6
f 127/5/6 123/5/6 128/5/6
f 126/5/6 127/5/6 129/5/6
f 125/6/6 126/6/6 129/6/6
f 129/5/6 127/5/6 130/5/6
f 130/5/6 127/5/6 131/5/6
f 127/6/6 128/6/6 132/6/6
f 131/5/6 127/5/6 132/5/6
f 130/5/6 131/5/6 133/5/6
f 129/6/6 130/6/6 133/6/6
f 133/5/6 131/5/6 134/5/6
f 134/5/6 131/5/6 135/5/6
f 131/6/6 132/6/6 136/6/6
f 135/5/6 131/5/6 136/5/6
f 134/5/6 135/5/6 137/5/6
f 133/6/6 134/6/6 137/6/6
f 137/5/6 135/5/6 138/5/6
f 138/5/6 135/5/6 139/5/6
f 135/6/6 136/6/6 140/6/6
f 139/5/6 135/5/6 140/5/6
f 138/5/6 139/5/6 141/5/6
f 137/6/6 138/6/6 141/6/6
f 141/5/6 139/5/6 142/5/6
f 142/5/6 139/5/6 143/5/6
f 139/6/6 140/6/6 144/6/6
f 143/5/6 139/5/6 144/5/6
f 142/5/6 143/5/6 145/5/6
f 141/6/6 142/6/6 145/6/6
f 143/6/6 144/6/6 146/6/6
f 145/5/6 143/5/6 146/5/6
f 133/6/6 137/6/6 147/6/6
f 137/6/6 141/6/6 147/6/6
f 145/6/6 146/6/6 147/6/6
f 141/6/6 145/6/6 147/6/6
f 146/6/6 144/6/6 148/6/6
f 147/6/6 146/6/6 148/6/6
f 124/6/6 90/6/6 149/6/6
f 148/6/6 144/6/6 149/6/6
f 128/6/6 124/6/6 149/6/6
f 144/6/6 140/6/6 149/6/6
f 132/6/6 128/6/6 149/6/6
f 140/6/6 136/6/6 149/6/6
f 136/6/6 132/6/6 149/6/6
f 149/6/6 90/6/6 150/6/6
f 147/5/6 148/5/6 151/5/6
f 148/6/6 149/6/6 151/6/6
f 151/6/6 149/6/6 152/6/6
f 147/5/6 151/5/6 153/5/6
f 151/5/6 152/5/6 153/5/6
f 153/5/6 152/5/6 154/5/6
f 152/6/6 149/6/6 155/6/6
f 154/5/6 152/5/6 155/5/6
f 155/6/6 149/6/6 156/6/6
f 153/6/6 154/6/6 157/6/6
f 154/5/6 155/5/6 157/5/6
f 155/5/6 156/5/6 157/5/6
f 157/5/6 156/5/6 158/5/6
f 156/6/6 149/6/6 159/6/6
f 158/5/6 156/5/6 159/5/6
f 149/5/6 150/5/6 160/5/6
f 159/6/6 149/6/6 160/6/6
f 158/5/6 159/5/6 161/5/6
f 157/6/6 158/6/6 161/6/6
f 159/5/6 160/5/6 161/5/6
f 160/5/6 150/5/6 162/5/6
f 161/5/6 160/5/6 162/5/6
f 133/6/6 147/6/6 163/6/6
f 147/5/6 153/5/6 163/5/6
f 157/6/6 161/6/6 164/6/6
f 163/5/6 153/5/6 164/5/6
f 153/6/6 157/6/6 164/6/6
f 161/6/6 162/6/6 164/6/6
f 162/5/6 150/5/6 165/5/6
f 164/6/6 162/6/6 165/6/6
f 163/6/6 164/6/6 165/6/6
f 150/6/6 90/6/6 166/6/6
f 165/5/6 150/5/6 166/5/6
f 163/6/6 165/6/6 167/6/6
f 133/6/6 163/6/6 167/6/6
f 165/6/6 166/6/6 167/6/6
f 125/6/6 129/6/6 167/6/6
f 129/6/6 133/6/6 167/6/6
f 121/6/6 125/6/6 167/6/6
f 89/6/6 121/6/6 167/6/6
f 167/6/6 166/6/6 168/6/6
f 89/6/6 167/6/6 169/6/6
f 167/5/6 168/5/6 170/5/6
f 169/6/6 167/6/6 170/6/6
f 168/6/6 166/6/6 171/6/6
f 170/5/6 168/5/6 171/5/6
f 171/6/6 166/6/6 172/6/6
f 89/6/6 169/6/6 173/6/6
f 169/5/6 170/5/6 174/5/6
f 173/6/6 169/6/6 174/6/6
f 170/5/6 171/5/6 174/5/6
f 171/5/6 172/5/6 174/5/6
f 172/6/6 166/6/6 175/6/6
f 174/5/6 172/5/6 175/5/6
f 175/6/6 166/6/6 176/6/6
f 89/6/6 173/6/6 177/6/6
f 173/5/6 174/5/6 178/5/6
f 177/6/6 173/6/6 178/6/6
f 174/5/6 175/5/6 178/5/6
f 175/5/6 176/5/6 178/5/6
f 176/6/6 166/6/6 179/6/6
f 178/5/6 176/5/6 179/5/6
f 179/6/6 166/6/6 180/6/6
f 89/6/6 177/6/6 181/6/6
f 177/5/6 178/5/6 182/5/6
f 181/6/6 177/6/6 182/6/6
f 178/5/6 179/5/6 182/5/6
f 179/5/6 180/5/6 182/5/6
f 180/6/6 166/6/6 183/6/6
f 182/5/6 180/5/6 183/5/6
f 183/6/6 166/6/6 184/6/6
f 89/6/6 181/6/6 185/6/6
f 181/5/6 182/5/6 186/5/6
f 185/6/6 181/6/6 186/6/6
f 182/5/6 183/5/6 186/5/6
f 183/5/6 184/5/6 186/5/6
f 184/6/6 166/6/6 187/6/6
f 186/5/6 184/5/6 187/5/6
f 187/6/6 166/6/6 188/6/6
f 188/6/6 166/6/6 189/6/6
f 189/6/6 166/6/6 190/6/6
f 188/6/6 189/6/6 191/6/6
f 189/5/6 190/5/6 192/5/6
f 191/6/6 189/6/6 192/6/6
f 190/6/6 166/6/6 193/6/6
f 192/5/6 190/5/6 193/5/6
f 193/6/6 166/6/6 194/6/6
f 188/6/6 191/6/6 195/6/6
f 191/5/6 192/5/6 196/5/6
f 195/6/6 191/6/6 196/6/6
f 192/5/6 193/5/6 196/5/6
f 193/5/6 194/5/6 196/5/6
f 194/6/6 166/6/6 197/6/6
f 196/5/6 194/5/6 197/5/6
f 197/6/6 166/6/6 198/6/6
f 188/6/6 195/6/6 199/6/6
f 195/5/6 196/5/6 200/5/6
f 199/6/6 195/6/6 200/6/6
f 196/5/6 197/5/6 200/5/6
f 197/5/6 198/5/6 200/5/6
f 200/5/6 198/5/6 201/5/6
f 201/5/6 198/5/6 202/5/6
f 198/6/6 166/6/6 203/6/6
f 202/5/6 198/5/6 203/5/6
f 203/6/6 166/6/6 204/6/6
f 201/4/6 202/4/6 205/4/6
f 205/4/6 202/4/6 206/4/6
f 188/6/6 199/6/6 207/6/6
f 199/5/6 200/5/6 208/5/6
f 207/6/6 199/6/6 208/6/6
f 200/5/6 201/5/6 208/5/6
f 204/6/6 166/6/6 209/6/6
f 202/5/6 203/5/6 209/5/6
f 203/5/6 204/5/6 209/5/6
f 209/6/6 166/6/6 210/6/6
f 185/5/6 186/5/6 211/5/6
f 89/6/6 185/6/6 211/6/6
f 186/5/6 187/5/6 211/5/6
f 187/5/6 188/5/6 211/5/6
f 211/5/6 188/5/6 212/5/6
f 212/5/6 188/5/6 213/5/6
f 188/6/6 207/6/6 214/6/6
f 213/5/6 188/5/6 214/5/6
f 205/2/6 206/2/6 215/2/6
f 206/4/6 202/4/6 216/4/6
f 215/2/6 206/2/6 216/2/6
f 205/2/6 215/2/6 217/2/6
f 215/4/6 216/4/6 217/4/6
f 216/4/6 202/4/6 218/4/6
f 217/4/6 216/4/6 218/4/6
f 212/5/6 213/5/6 219/5/6
f 211/6/6 212/6/6 219/6/6
f 219/5/6 213/5/6 220/5/6
f 220/5/6 213/5/6 221/5/6
f 213/6/6 214/6/6 222/6/6
f 221/5/6 213/5/6 222/5/6
f 205/2/6 217/2/6 223/2/6
f 217/2/6 218/2/6 223/2/6
f 218/4/6 202/4/6 224/4/6
f 223/2/6 218/2/6 224/2/6
f 220/5/6 221/5/6 225/5/6
f 219/6/6 220/6/6 225/6/6
f 225/5/6 221/5/6 226/5/6
f 226/5/6 221/5/6 227/5/6
f 221/6/6 222/6/6 228/6/6
f 227/5/6 221/5/6 228/5/6
f 208/5/6 201/5/6 229/5/6
f 207/5/6 208/5/6 229/5/6
f 201/4/6 205/4/6 230/4/6
f 229/5/6 201/5/6 230/5/6
f 209/5/6 210/5/6 231/5/6
f 202/5/6 209/5/6 231/5/6
f 224/4/6 202/4/6 231/4/6
f 223/4/6 224/4/6 231/4/6
f 231/5/6 210/5/6 232/5/6
f 226/5/6 227/5/6 233/5/6
f 225/6/6 226/6/6 233/6/6
f 233/5/6 227/5/6 234/5/6
f 234/5/6 227/5/6 235/5/6
f 227/6/6 228/6/6 236/6/6
f 235/5/6 227/5/6 236/5/6
f 207/5/6 229/5/6 237/5/6
f 236/6/6 228/6/6 237/6/6
f 228/6/6 222/6/6 237/6/6
f 222/6/6 214/6/6 237/6/6
f 214/6/6 207/6/6 237/6/6
f 237/5/6 229/5/6 238/5/6
f 229/4/6 230/4/6 239/4/6
f 230/4/6 205/4/6 240/4/6
f 239/4/6 230/4/6 240/4/6
f 205/2/6 223/2/6 240/2/6
f 223/4/6 231/4/6 241/4/6
f 240/2/6 223/2/6 241/2/6
f 231/4/6 232/4/6 241/4/6
f 241/4/6 232/4/6 242/4/6
f 232/5/6 210/5/6 243/5/6
f 210/6/6 166/6/6 244/6/6
f 243/5/6 210/5/6 244/5/6
f 233/6/6 234/6/6 245/6/6
f 234/5/6 235/5/6 245/5/6
f 245/5/6 235/5/6 246/5/6
f 246/5/6 235/5/6 247/5/6
f 235/6/6 236/6/6 248/6/6
f 247/5/6 235/5/6 248/5/6
f 237/6/6 238/6/6 248/6/6
f 236/6/6 237/6/6 248/6/6
f 246/5/6 247/5/6 249/5/6
f 245/6/6 246/6/6 249/6/6
f 247/6/6 248/6/6 250/6/6
f 249/5/6 247/5/6 250/5/6
f 238/5/6 229/5/6 251/5/6
f 250/6/6 248/6/6 251/6/6
f 248/6/6 238/6/6 251/6/6
f 251/5/6 229/5/6 252/5/6
f 229/4/6 239/4/6 253/4/6
f 241/2/6 242/2/6 253/2/6
f 239/2/6 240/2/6 253/2/6
f 240/2/6 241/2/6 253/2/6
f 242/4/6 232/4/6 254/4/6
f 253/2/6 242/2/6 254/2/6
f 232/5/6 243/5/6 255/5/6
f 243/6/6 244/6/6 256/6/6
f 255/5/6 243/5/6 256/5/6
f 252/5/6 229/5/6 257/5/6
f 229/4/6 253/4/6 257/4/6
f 253/4/6 254/4/6 257/4/6
f 257/4/6 254/4/6 258/4/6
f 258/4/6 254/4/6 259/4/6
f 254/4/6 232/4/6 260/4/6
f 259/4/6 254/4/6 260/4/6
f 232/5/6 255/5/6 260/5/6
f 249/6/6 250/6/6 261/6/6
f 251/6/6 252/6/6 261/6/6
f 250/6/6 251/6/6 261/6/6
f 252/5/6 257/5/6 261/5/6
f 257/5/6 258/5/6 261/5/6
f 261/5/6 258/5/6 262/5/6
f 258/4/6 259/4/6 263/4/6
f 262/5/6 258/5/6 263/5/6
f 259/5/6 260/5/6 264/5/6
f 263/4/6 259/4/6 264/4/6
f 260/5/6 255/5/6 265/5/6
f 264/5/6 260/5/6 265/5/6
f 255/6/6 256/6/6 266/6/6
f 265/5/6 255/5/6 266/5/6
f 261/6/6 262/6/6 267/6/6
f 263/5/6 264/5/6 267/5/6
f 262/5/6 263/5/6 267/5/6
f 264/5/6 265/5/6 267/5/6
f 267/5/6 265/5/6 268/5/6
f 268/5/6 265/5/6 269/5/6
f 265/6/6 266/6/6 270/6/6
f 269/5/6 265/5/6 270/5/6
f 268/5/6 269/5/6 271/5/6
f 267/6/6 268/6/6 271/6/6
f 269/6/6 270/6/6 272/6/6
f 271/5/6 269/5/6 272/5/6
f 249/6/6 261/6/6 273/6/6
f 261/6/6 267/6/6 273/6/6
f 271/6/6 272/6/6 273/6/6
f 267/6/6 271/6/6 273/6/6
f 273/6/6 272/6/6 274/6/6
f 274/6/6 272/6/6 275/6/6
f 275/6/6 272/6/6 276/6/6
f 225/6/6 233/6/6 277/6/6
f 245/6/6 249/6/6 277/6/6
f 219/6/6 225/6/6 277/6/6
f 249/6/6 273/6/6 277/6/6
f 233/6/6 245/6/6 277/6/6
f 89/6/6 211/6/6 277/6/6
f 211/6/6 219/6/6 277/6/6
f 277/6/6 273/6/6 278/6/6
f 274/6/6 275/6/6 279/6/6
f 279/6/6 275/6/6 280/6/6
f 276/6/6 272/6/6 281/6/6
f 166/6/6 90/6/6 282/6/6
f 281/6/6 272/6/6 282/6/6
f 266/6/6 256/6/6 282/6/6
f 256/6/6 244/6/6 282/6/6
f 270/6/6 266/6/6 282/6/6
f 272/6/6 270/6/6 282/6/6
f 244/6/6 166/6/6 282/6/6
f 283/6/6 284/6/6 285/6/6
f 285/6/6 284/6/6 286/6/6
f 283/6/6 285/6/6 287/6/6
f 286/6/6 284/6/6 290/6/6
f 287/6/6 288/6/6 291/6/6
f 283/6/6 287/6/6 291/6/6
f 291/6/6 288/6/6 292/6/6
f 289/6/6 290/6/6 293/6/6
f 290/6/6 284/6/6 294/6/6
f 293/6/6 290/6/6 294/6/6
f 295/1/6 296/1/6 297/1/6
f 297/1/6 296/1/6 298/1/6
