# Blender v2.79 (sub 0) OBJ File: ''
# www.blender.org
mtllib PalancaGiratoria.mtl
o Cylinder
v -0.278465 -0.027611 -0.973315
v -0.091830 2.695560 -0.310276
v 0.339366 -0.027611 -0.957470
v 0.106257 2.695560 -0.305196
v 0.829887 -0.027611 -0.581498
v 0.263527 2.695560 -0.184653
v 1.005737 -0.027611 0.010990
v 0.319908 2.695560 0.005309
v 0.799747 -0.027611 0.593686
v 0.253863 2.695560 0.192132
v 0.290597 -0.027611 0.944018
v 0.090621 2.695560 0.304454
v -0.327233 -0.027611 0.928172
v -0.107466 2.695560 0.299374
v -0.817755 -0.027611 0.552201
v -0.264735 2.695560 0.178831
v -0.993605 -0.027611 -0.040288
v -0.321116 2.695560 -0.011131
v -0.787614 -0.027611 -0.622983
v -0.255072 2.695560 -0.197954
v -0.278465 2.681009 -0.973315
v 0.339366 2.681009 -0.957470
v 0.829887 2.681009 -0.581498
v 1.005737 2.681009 0.010990
v 0.799747 2.681009 0.593686
v 0.290597 2.681009 0.944018
v -0.327233 2.681009 0.928172
v -0.817755 2.681009 0.552201
v -0.993605 2.681009 -0.040288
v -0.787614 2.681009 -0.622983
v 0.339366 2.042183 -0.957470
v 0.829887 2.042183 -0.581498
v 1.005737 2.042183 0.010990
v 0.799747 2.042183 0.593686
v 0.290597 2.042183 0.944018
v -0.327233 2.042183 0.928172
v -0.817755 2.042183 0.552201
v -0.993605 2.042183 -0.040288
v -0.787614 2.042183 -0.622983
v -0.278465 2.042183 -0.973315
v 0.106257 2.890085 -0.305196
v -0.091830 2.890085 -0.310276
v 0.263527 2.890085 -0.184653
v 0.319908 2.890085 0.005309
v 0.253863 2.890085 0.192132
v 0.090621 2.890085 0.304454
v -0.107466 2.890085 0.299374
v -0.264735 2.890085 0.178831
v -0.321116 2.890085 -0.011131
v -0.255072 2.890085 -0.197954
v 0.339366 1.537055 -0.957470
v 0.340460 1.226631 -0.955049
v 0.829887 1.537055 -0.581498
v 0.830981 1.226631 -0.579078
v 1.005737 1.537055 0.010990
v 1.006832 1.226631 0.013411
v 0.799747 1.537055 0.593686
v 0.800841 1.226631 0.596106
v 0.290597 1.537055 0.944018
v 0.291692 1.226631 0.946438
v -0.327233 1.537055 0.928172
v -0.326139 1.226631 0.930593
v -0.817755 1.537055 0.552201
v -0.816661 1.226631 0.554621
v -0.993605 1.537055 -0.040288
v -0.992511 1.226631 -0.037867
v -0.787614 1.537055 -0.622983
v -0.786520 1.226631 -0.620563
v -0.277371 1.226631 -0.970895
v -0.278465 1.537055 -0.973315
v 1.385503 2.042183 -0.753945
v 1.561353 2.042183 -0.161456
v 1.385503 1.537055 -0.753945
v 1.561353 1.537055 -0.161456
v -0.272690 1.537055 -3.183476
v -0.272690 2.042183 -3.183476
v 0.345141 2.042183 -3.167630
v 0.345141 1.537055 -3.167630
v -1.548454 2.042183 -0.233708
v -1.342463 2.042183 -0.816403
v -1.548454 1.537055 -0.233708
v -1.342463 1.537055 -0.816403
v -0.665121 2.042183 1.424782
v -1.155642 2.042183 1.048810
v -0.665121 1.537055 1.424782
v -1.155642 1.537055 1.048810
v 1.156742 2.042183 1.083903
v 0.647592 2.042183 1.434235
v 1.156742 1.537055 1.083903
v 0.647592 1.537055 1.434235
v 0.224878 1.633002 -2.446427
v 0.225773 1.633002 -2.711256
v 0.226669 1.633002 -3.050881
v 0.226669 1.946236 -3.050881
v 0.225773 1.946236 -2.711256
v 0.224878 1.946236 -2.446427
v -0.156453 1.946236 -3.074659
v -0.157348 1.946236 -2.735034
v -0.158244 1.946236 -2.470205
v -0.158244 1.633002 -2.470205
v -0.157348 1.633002 -2.735034
v -0.156453 1.633002 -3.074659
v 0.341433 2.042183 -2.374551
v -0.276398 2.042183 -2.390396
v 0.341433 1.537055 -2.374550
v -0.276398 1.537055 -2.390396
vn 0.0006 0.9998 -0.0221
vn 0.0134 0.9998 -0.0175
vn 0.0213 0.9998 -0.0063
vn 0.0211 0.9997 0.0075
vn 0.0129 0.9997 0.0187
vn -0.0006 0.9997 0.0229
vn -0.0140 0.9997 0.0182
vn -0.0219 0.9997 0.0065
vn -0.0213 0.9997 -0.0075
vn -0.0126 0.9998 -0.0184
vn 0.0000 -1.0000 0.0000
vn -0.5668 0.0000 -0.8238
vn -0.9428 0.0000 -0.3333
vn -0.9587 0.0000 0.2845
vn -0.6083 0.0000 0.7937
vn -0.0256 0.0000 0.9997
vn 0.5668 0.0000 0.8238
vn 0.9428 0.0000 0.3333
vn 0.9587 0.0000 -0.2845
vn 0.6083 0.0000 -0.7937
vn 0.0256 0.0000 -0.9997
vn -0.5668 0.0021 -0.8238
vn -0.5668 -0.0084 -0.8238
vn -0.9428 0.0015 -0.3333
vn -0.9428 -0.0059 -0.3333
vn -0.9587 0.0003 0.2845
vn -0.9587 -0.0012 0.2845
vn -0.6083 -0.0010 0.7937
vn -0.6083 0.0040 0.7937
vn -0.0256 -0.0019 0.9997
vn -0.0256 0.0077 0.9996
vn 0.5668 -0.0021 0.8238
vn 0.5668 0.0084 0.8238
vn 0.9428 -0.0015 0.3333
vn 0.9428 0.0059 0.3333
vn 0.9587 -0.0003 -0.2845
vn 0.9587 0.0012 -0.2845
vn 0.6083 0.0010 -0.7937
vn 0.6083 -0.0040 -0.7937
vn 0.0256 0.0019 -0.9997
vn 0.0256 -0.0077 -0.9996
vn 0.7019 0.0000 0.7123
vn 0.0000 1.0000 0.0000
vn 0.2964 0.0000 0.9551
vn -0.2964 0.0000 -0.9551
vn -0.0256 0.7615 0.6476
vn -0.0256 -0.7615 0.6476
vn -0.6834 -0.0000 0.7300
vn 0.3292 0.0000 -0.9443
vn -0.3292 0.0000 0.9443
vn -0.8268 0.0000 -0.5625
vn 0.8268 0.0000 0.5625
vn -0.8084 0.0000 0.5887
vn 0.8084 0.0000 -0.5887
vn -0.5597 0.0000 -0.8287
vn -1.0000 -0.0000 -0.0034
vn -1.0000 -0.0000 -0.0026
vn 0.0310 -0.6200 -0.7840
vn 0.0310 0.6200 -0.7840
vn 0.5249 -0.0000 -0.8512
vn 1.0000 0.0000 0.0034
vn 1.0000 0.0000 0.0026
vn 1.0000 -0.0000 0.0015
vn -1.0000 -0.0000 -0.0015
usemtl Material.001
s off
f 21//1 2//1 4//1 22//1
f 22//2 4//2 6//2 23//2
f 23//3 6//3 8//3 24//3
f 24//4 8//4 10//4 25//4
f 25//5 10//5 12//5 26//5
f 26//6 12//6 14//6 27//6
f 27//7 14//7 16//7 28//7
f 28//8 16//8 18//8 29//8
f 29//9 18//9 20//9 30//9
f 30//10 20//10 2//10 21//10
f 1//11 3//11 5//11 7//11 9//11 11//11 13//11 15//11 17//11 19//11
f 39//12 30//12 21//12 40//12
f 38//13 29//13 30//13 39//13
f 37//14 28//14 29//14 38//14
f 36//15 27//15 28//15 37//15
f 35//16 26//16 27//16 36//16
f 34//17 25//17 26//17 35//17
f 33//18 24//18 25//18 34//18
f 32//19 23//19 24//19 33//19
f 31//20 22//20 23//20 32//20
f 40//21 21//21 22//21 31//21
f 51//20 31//20 32//20 53//20
f 55//18 33//18 34//18 57//18
f 59//16 35//16 36//16 61//16
f 63//14 37//14 38//14 65//14
f 67//12 39//12 40//12 70//12
f 18//14 16//14 48//14 49//14
f 19//22 68//22 69//22 1//22
f 68//23 67//23 70//23 69//23
f 17//24 66//24 68//24 19//24
f 66//25 65//25 67//25 68//25
f 15//26 64//26 66//26 17//26
f 64//27 63//27 65//27 66//27
f 13//28 62//28 64//28 15//28
f 62//29 61//29 63//29 64//29
f 11//30 60//30 62//30 13//30
f 60//31 59//31 61//31 62//31
f 9//32 58//32 60//32 11//32
f 58//33 57//33 59//33 60//33
f 7//34 56//34 58//34 9//34
f 56//35 55//35 57//35 58//35
f 5//36 54//36 56//36 7//36
f 54//37 53//37 55//37 56//37
f 3//38 52//38 54//38 5//38
f 52//39 51//39 53//39 54//39
f 1//40 69//40 52//40 3//40
f 69//41 70//41 51//41 52//41
usemtl Material.002
f 10//18 8//18 44//18 45//18
f 94//42 93//42 78//42 77//42
f 32//43 33//43 72//43 71//43
f 59//11 57//11 89//11 90//11
f 36//43 37//43 84//43 83//43
f 38//43 39//43 80//43 79//43
f 41//43 42//43 50//43 49//43 48//43 47//43 46//43 45//43 44//43 43//43
f 4//21 2//21 42//21 41//21
f 8//19 6//19 43//19 44//19
f 6//20 4//20 41//20 43//20
f 2//12 20//12 50//12 42//12
f 20//13 18//13 49//13 50//13
f 16//15 14//15 47//15 48//15
f 14//16 12//16 46//16 47//16
f 12//17 10//17 45//17 46//17
f 73//19 71//19 72//19 74//19
f 33//44 55//44 74//44 72//44
f 53//45 32//45 71//45 73//45
f 55//11 53//11 73//11 74//11
f 75//21 76//21 77//21 78//21
f 97//46 94//46 77//46 76//46
f 93//47 102//47 75//47 78//47
f 102//48 97//48 76//48 75//48
f 81//13 79//13 80//13 82//13
f 39//49 67//49 82//49 80//49
f 65//50 38//50 79//50 81//50
f 67//11 65//11 81//11 82//11
f 85//15 83//15 84//15 86//15
f 63//11 61//11 85//11 86//11
f 37//51 63//51 86//51 84//51
f 61//52 36//52 83//52 85//52
f 89//17 87//17 88//17 90//17
f 34//43 35//43 88//43 87//43
f 35//53 59//53 90//53 88//53
f 57//54 34//54 87//54 89//54
f 106//55 104//55 99//55 100//55
f 100//56 99//56 98//56 101//56
f 101//57 98//57 97//57 102//57
f 105//58 106//58 100//58 91//58
f 91//11 100//11 101//11 92//11
f 92//11 101//11 102//11 93//11
f 104//59 103//59 96//59 99//59
f 99//43 96//43 95//43 98//43
f 98//43 95//43 94//43 97//43
f 103//60 105//60 91//60 96//60
f 96//61 91//61 92//61 95//61
f 95//62 92//62 93//62 94//62
f 31//63 51//63 105//63 103//63
f 40//43 31//43 103//43 104//43
f 51//11 70//11 106//11 105//11
f 70//64 40//64 104//64 106//64
